<svg id="Layer_2" data-name="Layer 2" xmlns="http://www.w3.org/2000/svg" viewBox="0 0 190.01 191.66"><defs><style>.cls-1{fill:#333;}.cls-1,.cls-2,.cls-3,.cls-4,.cls-5,.cls-6,.cls-7,.cls-8{fill-rule:evenodd;}.cls-2{fill:#0b91b7;}.cls-3{fill:#0b7cb8;}.cls-4{fill:#0c6da1;}.cls-5{fill:#24b09d;}.cls-6{fill:#1fb2ab;}.cls-7{fill:#10a9b7;}.cls-8{opacity:0.25;}</style></defs><title>Artboard 1</title><path class="cls-1" d="M168.47,172.39,182.67,160h6.45l-13.31,12.09L190,191.62h-6.13l-12.25-16.75-3.16,2.6v14.14h-4.4V147.91h4.4v24.48Zm-41.67,3.16a12.59,12.59,0,0,0,3.43,8.66,10.91,10.91,0,0,0,8.17,3.44,13,13,0,0,0,4.58-.84,12.32,12.32,0,0,0,3.78-2.18,18.87,18.87,0,0,0,3.4-4.4l.09-.14,3.66,2-.08.15a17.89,17.89,0,0,1-3.86,5.33,15.55,15.55,0,0,1-5,3.07,17.6,17.6,0,0,1-6.24,1.05c-4.72,0-8.94-1.41-12.08-5.06a17.3,17.3,0,0,1-.66-22.13,15.1,15.1,0,0,1,12.53-6,15.61,15.61,0,0,1,12.88,6.14,17,17,0,0,1,3.45,10.77v.18Zm23.29-3.8a13,13,0,0,0-2.25-4.86,11,11,0,0,0-4-3.06,12.34,12.34,0,0,0-5.26-1.17,11.24,11.24,0,0,0-7.77,2.92,13.22,13.22,0,0,0-3.51,6.17ZM64.43,159.26h4.4V174a30.73,30.73,0,0,0,.57,7.31,8,8,0,0,0,3.21,4.45,9.88,9.88,0,0,0,5.72,1.63,9.59,9.59,0,0,0,5.59-1.59,8,8,0,0,0,3.15-4.19c.64-1.83.62-5.66.62-7.61V159.26h4.46V174.8c0,3.06-.23,7-1.54,9.81A11.75,11.75,0,0,1,86,189.79a14.66,14.66,0,0,1-7.67,1.86,14.9,14.9,0,0,1-7.74-1.86A11.55,11.55,0,0,1,66,184.55c-1.31-2.88-1.53-6.94-1.53-10.07V159.26ZM0,191.45V148.83H8.93c4.16,0,9.9.15,13.86,1.55a18.61,18.61,0,0,1,9.68,7.52A22.93,22.93,0,0,1,36,170.66a22.5,22.5,0,0,1-2.78,11.27,17.84,17.84,0,0,1-7.2,7.21c-3.59,1.89-8.36,2.31-12.35,2.31Zm4.4-4.37H9.1c3.45,0,8.83,0,12.12-1.07a13.73,13.73,0,0,0,7.41-5.51,17.12,17.12,0,0,0,2.7-9.78,18,18,0,0,0-2.92-10.36,14.67,14.67,0,0,0-8.16-5.86c-3.75-1.14-9.14-1.22-13-1.22H4.4v33.79Zm39.27,4.49V173.41a14.31,14.31,0,0,1,14.27-14.27h2.75l-2.94,4.46h-.09a9.85,9.85,0,0,0-9.54,9.81v18.15Zm57.19-32.33V147.77h4.4v11.47h0v3.64h7.4v3.8h-7.4v10.7a9.85,9.85,0,0,0,9.53,9.81h.09l2.94,4.46H115.1a14.31,14.31,0,0,1-14.27-14.27V159.24Z"/><path id="_Path_" data-name="&lt;Path&gt;" class="cls-2" d="M137.73,98a192.77,192.77,0,0,0-48-34,194.22,194.22,0,0,1,35.67-13.37C134,66.34,139.79,82.94,137.73,98Z"/><path id="_Path_2" data-name="&lt;Path&gt;" class="cls-3" d="M89.71,0c9.87,12.46,25,30.86,35.74,50.56A193.55,193.55,0,0,0,68.81,75.91l-.13.08A195,195,0,0,1,89.71,0Z"/><path id="_Path_3" data-name="&lt;Path&gt;" class="cls-4" d="M89.71,0A194.88,194.88,0,0,0,68.59,100.26a196,196,0,0,1-26-20.83C48.76,51.32,73.56,21,89.71,0Z"/><path id="_Path_4" data-name="&lt;Path&gt;" class="cls-5" d="M42.61,79.44a196,196,0,0,0,42,30.49v5a195.8,195.8,0,0,1-27.31,10.06q-1.91-1.57-3.7-3.35C41.44,109.44,39.25,94.77,42.61,79.44Z"/><path class="cls-6" d="M57.29,124.95a195.8,195.8,0,0,0,27.31-10.06v21.35a50.84,50.84,0,0,1-27.31-11.29Zm37.44-15q8.12-4.3,15.93-9.42A194.57,194.57,0,0,1,105.43,134a51.38,51.38,0,0,1-10.7,2.21Z"/><path id="_Path_5" data-name="&lt;Path&gt;" class="cls-7" d="M105.43,134a193.29,193.29,0,0,0,5.32-57.9,191.36,191.36,0,0,1,27,21.84,40.39,40.39,0,0,1-11.92,23.62A50.61,50.61,0,0,1,105.43,134Z"/><path id="_Path_6" data-name="&lt;Path&gt;" class="cls-8" d="M68.59,100.26A196.21,196.21,0,0,1,42.88,79.7l-.28-.26q.48-2.17,1.09-4.36A195.61,195.61,0,0,0,67.52,98.19l1,.81C68.54,99.43,68.56,99.84,68.59,100.26Z"/><path id="_Path_7" data-name="&lt;Path&gt;" class="cls-8" d="M84.61,113.37v1.46a198.51,198.51,0,0,1-27.31,10.12c-1.21-1-2.38-2-3.51-3.17A211.19,211.19,0,0,0,84.61,113.37Z"/><path id="_Path_8" data-name="&lt;Path&gt;" class="cls-8" d="M110.75,76.14a192.14,192.14,0,0,1,27,21.84,44.5,44.5,0,0,1-.92,4.72,196.79,196.79,0,0,0-26-25.3C110.8,77,110.77,76.55,110.75,76.14Z"/><path id="_Path_9" data-name="&lt;Path&gt;" class="cls-8" d="M127.43,54.34A193.83,193.83,0,0,0,90.86,64.48l-1.09-.55.16-.08.37-.18.54-.26.54-.26q5.57-2.67,11.29-5l.16-.07.35-.14h0a197.16,197.16,0,0,1,22.25-7.39C126.13,51.82,126.78,53.08,127.43,54.34Z"/><path id="_Path_10" data-name="&lt;Path&gt;" class="cls-8" d="M68.9,73.09l.06-.72,0-.32a196,196,0,0,1,7-37.47l.35-1.19v0l.14-.47A196.76,196.76,0,0,1,89.71,0l4.83,6.08A195,195,0,0,0,69.72,75.32l-1,.67C68.75,75,68.82,74,68.9,73.09Z"/><path id="_Path_11" data-name="&lt;Path&gt;" class="cls-8" d="M110.66,100.48A195.88,195.88,0,0,1,105.43,134c-1.42.46-2.88.85-4.33,1.18a193.78,193.78,0,0,0,8.51-34.05Z"/><path id="_Path_12" data-name="&lt;Path&gt;" class="cls-4" d="M89.67,99.62a11,11,0,1,0-11-11A11,11,0,0,0,89.67,99.62Z"/></svg>